<svg width="512" height="512" viewBox="0 0 512 512" xmlns="http://www.w3.org/2000/svg">
  <rect width="512" height="512" rx="96" fill="#14121f"/>
  <rect x="56" y="56" width="400" height="400" rx="52" fill="#211a33"/>
  <g shape-rendering="crispEdges">
    <rect x="160" y="88" width="192" height="32" fill="#ff9f43"/>
    <rect x="128" y="120" width="256" height="32" fill="#ff9f43"/>
    <rect x="112" y="152" width="288" height="64" fill="#ff7a18"/>
    <rect x="144" y="216" width="224" height="32" fill="#ffd1a8"/>
    <rect x="160" y="248" width="192" height="32" fill="#ffd1a8"/>
    <rect x="176" y="280" width="160" height="64" fill="#111827"/>
    <rect x="144" y="344" width="64" height="48" fill="#7c3aed"/>
    <rect x="304" y="344" width="64" height="48" fill="#7c3aed"/>
    <rect x="176" y="392" width="48" height="32" fill="#38bdf8"/>
    <rect x="288" y="392" width="48" height="32" fill="#38bdf8"/>
    <rect x="192" y="184" width="32" height="32" fill="#111827"/>
    <rect x="288" y="184" width="32" height="32" fill="#111827"/>
    <rect x="224" y="232" width="64" height="16" fill="#ec4899"/>
    <rect x="112" y="248" width="48" height="96" fill="#4c1d95"/>
    <rect x="352" y="248" width="48" height="96" fill="#4c1d95"/>
    <rect x="72" y="408" width="368" height="24" fill="#38bdf8"/>
    <rect x="88" y="424" width="336" height="16" fill="#0ea5e9"/>
  </g>
  <text x="256" y="478" text-anchor="middle" font-family="monospace" font-size="34" fill="#f8fafc" font-weight="700">TITAN</text>
</svg>
